<svg width="48" height="48" viewBox="0 0 48 48" fill="none" xmlns="http://www.w3.org/2000/svg">
<path opacity="0.15" d="M24 47C32.2843 47 39 46.3284 39 45.5C39 44.6716 32.2843 44 24 44C15.7157 44 9 44.6716 9 45.5C9 46.3284 15.7157 47 24 47Z" fill="#45413C"/>
<path d="M24 31.22C27.1508 31.22 30.1725 32.4716 32.4004 34.6996C34.6284 36.9275 35.88 39.9492 35.88 43.1V45H12.12V43.1C12.12 39.9492 13.3716 36.9275 15.5996 34.6996C17.8275 32.4716 20.8492 31.22 24 31.22Z" fill="#7386D5"/>
<path d="M24 31.22C20.8492 31.22 17.8275 32.4716 15.5996 34.6996C13.3716 36.9275 12.12 39.9492 12.12 43.1V45H12.27C12.7038 42.2003 14.1248 39.6481 16.276 37.8046C18.4272 35.961 21.1669 34.9477 24 34.9477C26.8331 34.9477 29.5728 35.961 31.724 37.8046C33.8753 39.6481 35.2962 42.2003 35.73 45H35.88V43.1C35.88 39.9492 34.6284 36.9275 32.4004 34.6996C30.1725 32.4716 27.1508 31.22 24 31.22Z" fill="#7386D5"/>
<path d="M24 31.22C27.1508 31.22 30.1725 32.4716 32.4004 34.6996C34.6284 36.9275 35.88 39.9492 35.88 43.1V45H12.12V43.1C12.12 39.9492 13.3716 36.9275 15.5996 34.6996C17.8275 32.4716 20.8492 31.22 24 31.22V31.22Z" stroke="#45413C" stroke-linecap="round" stroke-linejoin="round"/>
<path d="M29.94 32.81V39.17C29.94 39.4352 29.8346 39.6896 29.6471 39.8771C29.4596 40.0646 29.2052 40.17 28.94 40.17H19.06C18.7948 40.17 18.5404 40.0646 18.3529 39.8771C18.1654 39.6896 18.06 39.4352 18.06 39.17V32.81C17.2728 33.268 16.5383 33.8113 15.87 34.43V45H32.13V34.43C31.4617 33.8113 30.7272 33.268 29.94 32.81Z" fill="#FFFDFB"/>
<path d="M29.94 36.52C30.7296 36.9783 31.4644 37.5251 32.13 38.15V34.43C31.4617 33.8113 30.7272 33.268 29.94 32.81V36.52Z" fill="white"/>
<path d="M18.06 36.52V32.81C17.2728 33.268 16.5383 33.8113 15.87 34.43V38.15C16.5356 37.5251 17.2704 36.9783 18.06 36.52Z" fill="#FFFEFE"/>
<path d="M29.94 32.81V39.17C29.94 39.4352 29.8346 39.6896 29.6471 39.8771C29.4596 40.0646 29.2052 40.17 28.94 40.17H19.06C18.7948 40.17 18.5404 40.0646 18.3529 39.8771C18.1654 39.6896 18.06 39.4352 18.06 39.17V32.81C17.2728 33.268 16.5383 33.8113 15.87 34.43V45H32.13V34.43C31.4617 33.8113 30.7272 33.268 29.94 32.81Z" stroke="#45413C" stroke-linecap="round" stroke-linejoin="round"/>
<path d="M24 30C24 30 19 29.94 19 32.79C19.0948 34.8927 19.8507 36.9119 21.16 38.56L24 36.13L26.89 38.56C28.1993 36.9119 28.9552 34.8927 29.05 32.79C29.05 29.94 24 30 24 30Z" fill="#7386D5" stroke="#45413C" stroke-linecap="round" stroke-linejoin="round"/>
<path d="M24 36.13L21.75 33.88C21.6573 33.7866 21.584 33.6757 21.5342 33.5539C21.4845 33.4321 21.4592 33.3016 21.46 33.17V30.17C21.46 29.4963 21.7276 28.8503 22.204 28.3739C22.6803 27.8976 23.3264 27.63 24 27.63C24.3344 27.63 24.6655 27.696 24.9743 27.8243C25.2832 27.9526 25.5636 28.1406 25.7996 28.3775C26.0356 28.6144 26.2225 28.8956 26.3495 29.2049C26.4766 29.5142 26.5413 29.8456 26.54 30.18V33.18C26.5408 33.3116 26.5155 33.4421 26.4658 33.5639C26.416 33.6857 26.3427 33.7966 26.25 33.89L24 36.13Z" fill="#FFF2EE"/>
<path d="M24 27.63C23.6656 27.63 23.3345 27.696 23.0257 27.8243C22.7168 27.9526 22.4364 28.1406 22.2004 28.3775C21.9644 28.6144 21.7775 28.8956 21.6505 29.2049C21.5234 29.5142 21.4587 29.8456 21.46 30.18V30.77C21.46 31.4436 21.7276 32.0897 22.2039 32.566C22.6803 33.0424 23.3263 33.31 24 33.31C24.6736 33.31 25.3197 33.0424 25.796 32.566C26.2724 32.0897 26.54 31.4436 26.54 30.77V30.18C26.5413 29.8456 26.4766 29.5142 26.3495 29.2049C26.2225 28.8956 26.0356 28.6144 25.7996 28.3775C25.5636 28.1406 25.2831 27.9526 24.9743 27.8243C24.6655 27.696 24.3344 27.63 24 27.63Z" fill="#F5E5E0"/>
<path d="M24 36.13L21.75 33.88C21.6573 33.7866 21.584 33.6757 21.5342 33.5539C21.4845 33.4321 21.4592 33.3016 21.46 33.17V30.17C21.46 29.4963 21.7276 28.8503 22.204 28.3739C22.6803 27.8976 23.3264 27.63 24 27.63V27.63C24.3344 27.63 24.6655 27.696 24.9743 27.8243C25.2832 27.9526 25.5636 28.1406 25.7996 28.3775C26.0356 28.6144 26.2225 28.8956 26.3495 29.2049C26.4766 29.5142 26.5413 29.8456 26.54 30.18V33.18C26.5408 33.3116 26.5155 33.4421 26.4658 33.5639C26.416 33.6857 26.3427 33.7966 26.25 33.89L24 36.13Z" stroke="#45413C" stroke-linecap="round" stroke-linejoin="round"/>
<path d="M24 36.13V40.17" stroke="#45413C" stroke-linecap="round" stroke-linejoin="round"/>
<path d="M42.15 33.62C42.417 32.8422 42.4332 32.0002 42.1964 31.2126C41.9596 30.4251 41.4817 29.7316 40.83 29.23L39.83 32.07C39.7784 32.2228 39.6968 32.3637 39.59 32.4845C39.4831 32.6053 39.3532 32.7035 39.2079 32.7734C39.0625 32.8433 38.9047 32.8834 38.7437 32.8914C38.5826 32.8994 38.4216 32.8751 38.27 32.82C37.9628 32.7133 37.7104 32.4892 37.568 32.1969C37.4256 31.9045 37.4047 31.5677 37.51 31.26L38.51 28.42C37.6871 28.4021 36.8797 28.645 36.2032 29.114C35.5268 29.5829 35.0161 30.2538 34.7442 31.0307C34.4723 31.8076 34.4531 32.6506 34.6895 33.439C34.9258 34.2274 35.4056 34.9208 36.06 35.42L34.24 40.63L36.55 41.44L38.37 36.23C39.1952 36.251 40.0058 36.0096 40.685 35.5406C41.3643 35.0715 41.8772 34.3991 42.15 33.62Z" fill="#DAEDF7"/>
<path d="M34.75 33.11C34.9795 32.4584 35.3783 31.8796 35.9056 31.4332C36.4328 30.9868 37.0694 30.6888 37.75 30.57L38.5 28.42C37.6842 28.4063 36.8844 28.6475 36.2122 29.11C35.54 29.5724 35.0288 30.2332 34.75 31C34.483 31.7536 34.4585 32.5718 34.68 33.34C34.71 33.28 34.72 33.2 34.75 33.11Z" fill="white"/>
<path d="M42.15 33.62C42.417 32.8422 42.4332 32.0002 42.1964 31.2126C41.9596 30.4251 41.4817 29.7316 40.83 29.23L39.83 32.07C39.7784 32.2228 39.6968 32.3637 39.59 32.4845C39.4831 32.6053 39.3532 32.7035 39.2079 32.7734C39.0625 32.8433 38.9047 32.8834 38.7437 32.8914C38.5826 32.8994 38.4216 32.8751 38.27 32.82C37.9628 32.7133 37.7104 32.4892 37.568 32.1969C37.4256 31.9045 37.4047 31.5677 37.51 31.26L38.51 28.42C37.6871 28.4021 36.8797 28.645 36.2032 29.114C35.5268 29.5829 35.0161 30.2538 34.7442 31.0307C34.4723 31.8076 34.4531 32.6506 34.6895 33.439C34.9258 34.2274 35.4056 34.9208 36.06 35.42L34.24 40.63L36.55 41.44L38.37 36.23C39.1952 36.251 40.0058 36.0096 40.685 35.5406C41.3643 35.0715 41.8772 34.3991 42.15 33.62Z" stroke="#45413C" stroke-linecap="round" stroke-linejoin="round"/>
<path d="M37.16 39.82L33.62 38.58C33.4721 38.513 33.3119 38.4776 33.1495 38.4759C32.9872 38.4743 32.8263 38.5064 32.677 38.5703C32.5277 38.6342 32.3934 38.7285 32.2826 38.8471C32.1717 38.9657 32.0868 39.1061 32.0332 39.2594C31.9795 39.4126 31.9584 39.5753 31.971 39.7372C31.9837 39.899 32.0299 40.0565 32.1068 40.1995C32.1836 40.3426 32.2894 40.468 32.4173 40.568C32.5453 40.6679 32.6926 40.7401 32.85 40.78C32.7021 40.713 32.5419 40.6776 32.3795 40.6759C32.2172 40.6743 32.0563 40.7064 31.907 40.7703C31.7577 40.8342 31.6234 40.9285 31.5126 41.0471C31.4017 41.1657 31.3168 41.3061 31.2632 41.4594C31.2095 41.6126 31.1884 41.7753 31.201 41.9372C31.2137 42.099 31.2599 42.2565 31.3368 42.3995C31.4136 42.5426 31.5194 42.668 31.6473 42.768C31.7753 42.8679 31.9226 42.9401 32.08 42.98L32 43C31.7514 42.9614 31.4971 43.0108 31.2811 43.1397C31.065 43.2686 30.9007 43.4688 30.8166 43.7059C30.7324 43.943 30.7337 44.202 30.8201 44.4383C30.9065 44.6745 31.0727 44.8732 31.29 45L34.92 46.27C35.411 46.4319 35.9456 46.3974 36.4117 46.1736C36.8778 45.9499 37.2392 45.5544 37.42 45.07L38.42 42.33C38.5819 41.83 38.5405 41.2863 38.3047 40.8166C38.0689 40.3469 37.6577 39.9889 37.16 39.82Z" fill="white"/>
<path d="M37.9 43.65L38.36 42.31C38.5189 41.8203 38.4829 41.2882 38.2594 40.8243C38.0358 40.3605 37.6421 40.0008 37.16 39.82L33.62 38.58C33.4198 38.5084 33.2037 38.4942 32.9958 38.539C32.788 38.5838 32.5969 38.6858 32.444 38.8335C32.2911 38.9812 32.1825 39.1687 32.1306 39.3748C32.0786 39.5809 32.0854 39.7975 32.15 40C32.2959 39.9038 32.4617 39.8421 32.635 39.8195C32.8083 39.797 32.9844 39.8143 33.15 39.87L36.69 41.11C37.1855 41.2887 37.5906 41.6557 37.8171 42.1313C38.0437 42.6068 38.0735 43.1526 37.9 43.65Z" fill="#F0F0F0"/>
<path d="M37.16 39.82L33.62 38.58C33.4721 38.513 33.3119 38.4776 33.1495 38.4759C32.9872 38.4743 32.8263 38.5064 32.677 38.5703C32.5277 38.6342 32.3934 38.7285 32.2826 38.8471C32.1717 38.9657 32.0868 39.1061 32.0332 39.2594C31.9795 39.4126 31.9584 39.5753 31.971 39.7372C31.9837 39.899 32.0299 40.0565 32.1068 40.1995C32.1836 40.3426 32.2894 40.468 32.4173 40.568C32.5453 40.6679 32.6926 40.7401 32.85 40.78C32.7021 40.713 32.5419 40.6776 32.3795 40.6759C32.2172 40.6743 32.0563 40.7064 31.907 40.7703C31.7577 40.8342 31.6234 40.9285 31.5126 41.0471C31.4017 41.1657 31.3168 41.3061 31.2632 41.4594C31.2095 41.6126 31.1884 41.7753 31.201 41.9372C31.2137 42.099 31.2599 42.2565 31.3368 42.3995C31.4136 42.5426 31.5194 42.668 31.6473 42.768C31.7753 42.8679 31.9226 42.9401 32.08 42.98L32 43C31.7514 42.9614 31.4971 43.0108 31.2811 43.1397C31.065 43.2686 30.9007 43.4688 30.8166 43.7059C30.7324 43.943 30.7337 44.202 30.8201 44.4383C30.9065 44.6745 31.0727 44.8732 31.29 45L34.92 46.27C35.411 46.4319 35.9456 46.3974 36.4117 46.1736C36.8778 45.9499 37.2392 45.5544 37.42 45.07L38.42 42.33C38.5819 41.83 38.5405 41.2863 38.3047 40.8166C38.0689 40.3469 37.6577 39.9889 37.16 39.82V39.82Z" stroke="#45413C" stroke-linecap="round" stroke-linejoin="round"/>
<path d="M32.85 40.78L34.37 41.31" stroke="#45413C" stroke-linecap="round" stroke-linejoin="round"/>
<path d="M32.08 42.98L33.61 43.52" stroke="#45413C" stroke-linecap="round" stroke-linejoin="round"/>
<path d="M24 6.83C23.1769 6.83077 22.3572 6.93492 21.56 7.14C19.7 7.56 17.28 8.26 15.09 7.84C15.0029 8.40406 15.0325 8.97999 15.177 9.53215C15.3215 10.0843 15.5778 10.6009 15.93 11.05C14.7891 12.6944 14.1784 14.6485 14.18 16.65V21.79H33.82V16.65C33.82 14.0456 32.7854 11.5478 30.9438 9.70621C29.1022 7.86461 26.6044 6.83 24 6.83Z" fill="#A6A19E"/>
<path d="M24 6.83C23.1769 6.83077 22.3571 6.93492 21.56 7.14C19.7 7.56 17.28 8.26 15.09 7.84C14.9546 8.88896 15.1956 9.95194 15.77 10.84C17.7294 10.8806 19.6831 10.614 21.56 10.05C23.0104 9.67591 24.5272 9.63893 25.9942 9.94189C27.4611 10.2448 28.8391 10.8797 30.0227 11.7978C31.2062 12.7158 32.1638 13.8927 32.8221 15.2383C33.4803 16.5838 33.8217 18.0621 33.82 19.56V16.65C33.82 14.0456 32.7854 11.5478 30.9438 9.70621C29.1022 7.86461 26.6044 6.83 24 6.83Z" fill="#ADAAA8"/>
<path d="M24 6.83C23.1769 6.83077 22.3571 6.93492 21.56 7.14C19.7 7.56 17.28 8.26 15.09 7.84C15.0029 8.40406 15.0325 8.97999 15.177 9.53215C15.3215 10.0843 15.5778 10.6009 15.93 11.05C14.7891 12.6944 14.1784 14.6485 14.18 16.65V21.79H33.82V16.65C33.82 14.0456 32.7854 11.5478 30.9438 9.70621C29.1022 7.86461 26.6044 6.83 24 6.83Z" stroke="#45413C" stroke-linecap="round" stroke-linejoin="round"/>
<path d="M34.87 21C34.8201 20.6333 34.6607 20.2902 34.4127 20.0154C34.1647 19.7407 33.8397 19.5471 33.48 19.46L32.89 19.3C32.4553 19.1772 32.073 18.9149 31.8019 18.5536C31.5309 18.1922 31.3861 17.7517 31.39 17.3V15.3C31.3889 14.8876 31.2522 14.487 31.0011 14.16C30.7499 13.8329 30.3981 13.5975 30 13.49C28.0931 14.2512 26.0528 14.6219 24 14.58C21.9472 14.6219 19.9069 14.2512 18 13.49C17.6 13.5956 17.246 13.8302 16.9929 14.1575C16.7398 14.4847 16.6017 14.8863 16.6 15.3V17.36C16.6038 17.8117 16.4591 18.2522 16.1881 18.6136C15.917 18.9749 15.5347 19.2372 15.1 19.36L14.51 19.52C14.1605 19.6048 13.8435 19.7902 13.5983 20.0533C13.353 20.3163 13.1902 20.6454 13.13 21C13.1033 21.2532 13.1302 21.5091 13.2092 21.7511C13.2881 21.9932 13.4172 22.2158 13.588 22.4046C13.7588 22.5933 13.9675 22.7439 14.2005 22.8465C14.4334 22.9491 14.6854 23.0014 14.94 23H15.05C15.2191 25.2646 16.2381 27.3815 17.9026 28.9264C19.5671 30.4712 21.7541 31.3296 24.025 31.3296C26.2959 31.3296 28.4829 30.4712 30.1474 28.9264C31.8119 27.3815 32.8309 25.2646 33 23H33.11C33.3603 22.9945 33.6068 22.9371 33.8338 22.8314C34.0608 22.7258 34.2634 22.5741 34.4288 22.3862C34.5942 22.1982 34.7189 21.978 34.7948 21.7394C34.8707 21.5008 34.8963 21.249 34.87 21Z" fill="#FAFAFA" stroke="#45413C" stroke-linecap="round" stroke-linejoin="round"/>
<path d="M18.57 20.83C18.57 21.0342 18.6511 21.2301 18.7955 21.3745C18.9399 21.5189 19.1358 21.6 19.34 21.6C19.5442 21.6 19.7401 21.5189 19.8845 21.3745C20.0289 21.2301 20.11 21.0342 20.11 20.83C20.11 20.6258 20.0289 20.4299 19.8845 20.2855C19.7401 20.1411 19.5442 20.06 19.34 20.06C19.1358 20.06 18.9399 20.1411 18.7955 20.2855C18.6511 20.4299 18.57 20.6258 18.57 20.83Z" fill="#45413C" stroke="#45413C" stroke-linecap="round" stroke-linejoin="round"/>
<path d="M29.43 20.83C29.43 21.0342 29.3489 21.2301 29.2045 21.3745C29.0601 21.5189 28.8642 21.6 28.66 21.6C28.4558 21.6 28.2599 21.5189 28.1155 21.3745C27.9711 21.2301 27.89 21.0342 27.89 20.83C27.89 20.6258 27.9711 20.4299 28.1155 20.2855C28.2599 20.1411 28.4558 20.06 28.66 20.06C28.8642 20.06 29.0601 20.1411 29.2045 20.2855C29.3489 20.4299 29.43 20.6258 29.43 20.83Z" fill="#45413C" stroke="#45413C" stroke-linecap="round" stroke-linejoin="round"/>
<path d="M21.16 25.53C21.0974 25.5295 21.0354 25.5426 20.9784 25.5685C20.9214 25.5944 20.8708 25.6325 20.83 25.68C20.7881 25.7271 20.7574 25.783 20.7401 25.8436C20.7228 25.9042 20.7193 25.9679 20.73 26.03C20.865 26.7992 21.2669 27.4962 21.865 27.9984C22.463 28.5007 23.219 28.776 24 28.776C24.781 28.776 25.537 28.5007 26.135 27.9984C26.7331 27.4962 27.135 26.7992 27.27 26.03C27.2807 25.9679 27.2772 25.9042 27.2599 25.8436C27.2426 25.783 27.2119 25.7271 27.17 25.68C27.1292 25.6325 27.0786 25.5944 27.0216 25.5685C26.9646 25.5426 26.9026 25.5295 26.84 25.53H21.16Z" stroke="#45413C" stroke-linecap="round" stroke-linejoin="round"/>
</svg>
